<?xml version="1.0" encoding="UTF-8"?>
<svg id="Layer_2" data-name="Layer 2" xmlns="http://www.w3.org/2000/svg" viewBox="0 0 104.28 56.6">
  <defs>
    <style>
      .cls-1 {
        fill: #76bf73;
      }

      .cls-2 {
        fill: #1b5b2f;
      }

      .cls-3 {
        fill: #247d3e;
      }

      .cls-4 {
        fill: #4cab4f;
      }
    </style>
  </defs>
  <g id="Layer_1-2" data-name="Layer 1">
    <path class="cls-2" d="M35.1,35.85c-4.28,.28-12.97-1.34-19.33-4.11C1.81,25.67-.42,18.34,.06,21.08c.19,1.1,1.59,6.11,6.59,11.11,6.13,6.13,17.6,8.16,24.51,8.56-8.29,6.07-8.18,13.63-7.55,13.33,1.5-.71,4.59-5.41,11.04-7.56,4.52-1.51,12.09-3.33,15.35-2.89,3.19,.43,4.85,2.91,9.02,5.85,4.32,3.05,9.27,6.83,17.63,7.11l-7.41-5.53-9.15-11.1h-.18s.26-.71,.26-.71c6.94,0,17.26-2.99,20.33-4.37,4.11-1.84,5.99-4.61,11.33-6.3,6.97-2.19,12.42-.99,12.44-1.41,.03-.48-6.94-2.2-15.89-.87-2.26,.33-4.31,.59-5.96,1.24-5.77,2.29-11.13,5.32-20.44,5.03l4.82-3.15c.56-.56,3.11-3.27,3.98-3.83,2.83-1.81,3.86-1.91,3.81-2.14-.08-.33-5.78-.33-11.03,1.94-2.85,1.23-5.17,2.65-6.83,3.73l-.71,.14c7.27-12.2,9.37-20.69,11.07-25.5,.19-.54,.98-1.55,.59-2.37-1.24-2.61-12.75-1.4-14.15,2.89-.34,1.03-.31,2.1-.32,2.15-.84,4.49-1.52,10.52-7.61,26.81-3.01-1.12-7.51-3.46-11.48-6.73-7.9-6.5-10.56-14.53-11.04-13.48-.74,1.63-.03,10.43,6.58,17.73,2.11,2.33,4.33,3.9,6.08,4.93l-.67,.15Z"/>
    <path class="cls-3" d="M2.4,23.52c8.88,6.76,19.35,10.71,30.4,11.86,3.65,.44,7.5,.49,11.2,1.47-7.54,.72-15.34,1.63-22.77-.66-7.36-2.08-14.47-6.3-18.83-12.67h0Z"/>
    <path class="cls-3" d="M25.11,51.08c1.65-8.4,10.36-14.98,18.89-14.22-7.36,3.49-13.51,8.11-18.89,14.22h0Z"/>
    <path class="cls-3" d="M53.48,33.63c7.18,.71,14.42,.26,21.03-2.69,6.68-2.97,14.07-4.82,21.41-4.57-7.18,1.38-13.99,3.39-20.64,6.42-6.81,2.97-14.8,3.18-21.8,.84h0Z"/>
    <path class="cls-3" d="M48,37.4c5.32-.01,10.09,3.58,13.22,7.68,2.92,4.04,5.88,7.67,10.17,10.39-5.24-.46-9.64-4.53-12.57-8.59-2.96-3.87-6.36-7.19-10.81-9.48h0Z"/>
    <path class="cls-3" d="M24.51,15.52c6.16,10.79,12.04,15.07,23.49,19.44-11.4-.85-20.84-8.17-23.49-19.44h0Z"/>
    <path class="cls-4" d="M67.69,1.41c.21,1.67-2.45,3.49-6.07,4.08s-8.08,.18-8.08-1.19c0-1.46,3.04-3.32,6.64-4,4.53-.86,7.41,.33,7.51,1.11Z"/>
    <path class="cls-1" d="M61.28,.55c.37,.57-.68,1.4-2.02,1.75s-3.9,.62-3.92,.21c-.02-.44,1.97-1.31,3.17-1.68,1.04-.33,2.54-.64,2.77-.28Z"/>
    <polygon class="cls-2" points="47.51 29.69 44 35.97 49.01 36.3 50.62 30.45 47.51 29.69"/>
  </g>
</svg>